<?xml version="1.0" encoding="UTF-8"?>
<svg width="8px" height="5px" viewBox="0 0 8 5" version="1.1" xmlns="http://www.w3.org/2000/svg" xmlns:xlink="http://www.w3.org/1999/xlink">
    <!-- Generator: sketchtool 60 (101010) - https://sketch.com -->
    <title>243239C7-13A9-4720-A981-9B40120324E1</title>
    <desc>Created with sketchtool.</desc>
    <g id="Page-1" stroke="none" stroke-width="1" fill="none" fill-rule="evenodd">
        <g id="Sport" transform="translate(-270.000000, -229.000000)" fill="#AAAFB5" fill-rule="nonzero">
            <g id="menu">
                <g id="Favourites" transform="translate(0.000000, 221.000000)">
                    <g id="arrow/white" transform="translate(270.000000, 8.000000)">
                        <path d="M3.1801839,2.50169106 L6.3641019,-0.491219512 C6.4517714,-0.573430894 6.5,-0.683349593 6.5,-0.800552846 C6.5,-0.917821138 6.4517714,-1.0276748 6.3641019,-1.11001626 L6.08510948,-1.37213008 C5.99757838,-1.45460163 5.88057039,-1.5 5.75588181,-1.5 C5.63119324,-1.5 5.51432364,-1.45460163 5.42672334,-1.37213008 L1.63576156,2.19118699 C1.54781529,2.27378862 1.49965588,2.3841626 1.5,2.50149593 C1.49965588,2.61934959 1.54774609,2.7295935 1.63576156,2.81226016 L5.42319442,6.37213008 C5.51079472,6.45460163 5.62766431,6.5 5.75242209,6.5 C5.87711067,6.5 5.99398026,6.45460163 6.08164975,6.37213008 L6.36057298,6.11001626 C6.54207029,5.93941463 6.54207029,5.66169106 6.36057298,5.49115447 L3.1801839,2.50169106 Z" id="Path" transform="translate(4.000000, 2.500000) rotate(-90.000000) translate(-4.000000, -2.500000) "></path>
                    </g>
                </g>
            </g>
        </g>
    </g>
</svg>